<?xml version="1.0" encoding="UTF-8"?> <svg xmlns="http://www.w3.org/2000/svg" id="Layer_1" data-name="Layer 1" width="951.1118" height="135.1188" viewBox="0 0 951.1118 135.1188"><g><path d="M151.2949,570.5664h-24.12V518.4116q0-11.1761-3.87-16.3213-3.8724-5.1423-11.07-5.144a21.906,21.906,0,0,0-9.81,2.4609,29.4227,29.4227,0,0,0-8.82,6.7671,31.6925,31.6925,0,0,0-6.03,9.9307v54.4614h-23.94v-93.42h21.78v17.4263a33.983,33.983,0,0,1,9.18-10.1451,44.3332,44.3332,0,0,1,12.78-6.4067,50.3482,50.3482,0,0,1,15.48-2.3145q8.8169,0,14.49,3.1163a21.4208,21.4208,0,0,1,8.64,8.4541,38.0863,38.0863,0,0,1,4.14,11.8349,73.7619,73.7619,0,0,1,1.17,13.0781Z" transform="translate(-63.6348 -475.7065)" style="fill: #0095da"></path><path d="M216.0928,572.3662a52.9144,52.9144,0,0,1-20.52-3.8252,46.196,46.196,0,0,1-25.56-25.72,48.8468,48.8468,0,0,1-3.42-18.335,50.1675,50.1675,0,0,1,6.03-24.3,46.1643,46.1643,0,0,1,17.1-17.8032q11.07-6.6738,26.55-6.6768,15.2973,0,26.28,6.6851a46.32,46.32,0,0,1,16.92,17.5615,48.6642,48.6642,0,0,1,5.94,23.709q0,2.32-.18,4.3682-.1809,2.05-.36,3.476h-72.72a25.3344,25.3344,0,0,0,4.05,12.5806,23.8414,23.8414,0,0,0,9,8.0039,25.0685,25.0685,0,0,0,11.61,2.8154,28.1564,28.1564,0,0,0,13.77-3.51,18.4643,18.4643,0,0,0,8.73-9.45l20.52,5.76a37.5818,37.5818,0,0,1-9.54,12.78,46.0064,46.0064,0,0,1-14.94,8.7295A55.9352,55.9352,0,0,1,216.0928,572.3662Zm-24.66-55.98h49.32a27.4879,27.4879,0,0,0-4.05-12.2256,23.3715,23.3715,0,0,0-8.73-8.0918,25.0682,25.0682,0,0,0-12.06-2.9023,24.1684,24.1684,0,0,0-11.79,2.9023,23.5459,23.5459,0,0,0-8.64,8.0918A27.4161,27.4161,0,0,0,191.4326,516.3862Z" transform="translate(-63.6348 -475.7065)" style="fill: #0095da"></path><path d="M394.4727,477.1465h22.86l-39.42,93.42h-20.16l-15.84-40.1147-15.48,40.1147h-20.16l-39.6-93.42h22.86l28.08,70.5986,10.98-30.4839-16.38-40.1147h19.98l9.72,28.7041,9.9-28.7041h19.98l-16.38,40.1147,11.16,30.4839Z" transform="translate(-63.6348 -475.7065)" style="fill: #0095da"></path><path d="M471.1509,572.3662a44.8686,44.8686,0,0,1-33.57-14.4082,48.7483,48.7483,0,0,1-9.63-15.3955,49.5837,49.5837,0,0,1-3.42-18.3462,50.5655,50.5655,0,0,1,3.42-18.706,47.89,47.89,0,0,1,9.72-15.3926,46.0644,46.0644,0,0,1,14.85-10.5611,44.862,44.862,0,0,1,18.63-3.85,44.2689,44.2689,0,0,1,18.54,3.85,46.4031,46.4031,0,0,1,14.76,10.5611,47.9914,47.9914,0,0,1,9.72,15.3926,50.6265,50.6265,0,0,1,3.42,18.706,49.6446,49.6446,0,0,1-3.42,18.3462,48.7943,48.7943,0,0,1-9.63,15.3955,44.8543,44.8543,0,0,1-33.39,14.4082Zm-34.2-47.9726a38.99,38.99,0,0,0,4.59,18.8544,35.5855,35.5855,0,0,0,12.33,13.4043,31.2412,31.2412,0,0,0,17.1,4.9141,30.8542,30.8542,0,0,0,17.1-5.0039,36.6714,36.6714,0,0,0,12.42-13.6709,39.421,39.421,0,0,0,4.68-19.0352,38.5525,38.5525,0,0,0-4.68-18.7622,36.8638,36.8638,0,0,0-12.42-13.5844,30.857,30.857,0,0,0-17.1-5.0035,30.0856,30.0856,0,0,0-17.1,5.1836,37.7721,37.7721,0,0,0-12.33,13.6714A39.3684,39.3684,0,0,0,436.9507,524.3936Z" transform="translate(-63.6348 -475.7065)"></path><path d="M536.8491,477.1465l27.54,36.5791,1.44,2.689,1.44-2.689,27.36-36.5791h13.86l-35.64,46.98,35.64,46.44h-13.86l-27.36-36.3994-1.44-2.5117-1.44,2.5117-27.36,36.3994h-13.86l35.46-46.44-35.46-46.98Z" transform="translate(-63.6348 -475.7065)"></path><path d="M630.0889,599.3662q2.5188.1773,4.86.2695a10.5176,10.5176,0,0,0,3.42-.2695,7.39,7.39,0,0,0,4.14-2.5117q1.979-2.1519,4.68-8.249,2.7-6.1,7.56-17.9326l-40.86-93.5264h12.96l34.38,80.96,31.68-80.96h12.24l-48.6,120.6338a21.12,21.12,0,0,1-3.78,6.373,17.9708,17.9708,0,0,1-6.21,4.669,23.6173,23.6173,0,0,1-9.09,1.8838,20.6643,20.6643,0,0,1-3.33.09q-1.7131-.0922-4.05-.45Z" transform="translate(-63.6348 -475.7065)"></path><path d="M756.6294,572.3662a39.6437,39.6437,0,0,1-17.64-3.96,43.5727,43.5727,0,0,1-13.95-10.71,51.14,51.14,0,0,1-12.33-33.21,54.461,54.461,0,0,1,3.15-18.63,49.6283,49.6283,0,0,1,9-15.57,42.5341,42.5341,0,0,1,13.77-10.71,39.6548,39.6548,0,0,1,17.64-3.87,36.5245,36.5245,0,0,1,20.97,6.03,56.0242,56.0242,0,0,1,15.03,15.03v-19.62H803.25v93.8867q0,12.9258-6.21,21.8135a38.2377,38.2377,0,0,1-16.74,13.374,57.97,57.97,0,0,1-22.95,4.4854q-16.0224,0-25.92-5.76a47.581,47.581,0,0,1-16.2-15.4805l7.56-5.9394a34.5238,34.5238,0,0,0,14.85,13.14,46.0921,46.0921,0,0,0,19.71,4.32,42.4438,42.4438,0,0,0,16.83-3.2685,28.1224,28.1224,0,0,0,12.24-9.8037q4.59-6.5391,4.59-16.4483v-18.54a40.2428,40.2428,0,0,1-14.76,14.1308A39.2213,39.2213,0,0,1,756.6294,572.3662Zm3.42-10.26a29.4484,29.4484,0,0,0,10.71-1.98,37.4658,37.4658,0,0,0,9.45-5.31,33.806,33.806,0,0,0,7.2-7.4707,20.7918,20.7918,0,0,0,3.6-8.4595v-28.98a38.0845,38.0845,0,0,0-19.17-20.43,31.059,31.059,0,0,0-13.23-2.97,29.4305,29.4305,0,0,0-14.13,3.33,32.2845,32.2845,0,0,0-10.44,8.82,42.6394,42.6394,0,0,0-6.57,12.33,42.0227,42.0227,0,0,0-2.34,13.68,38.1743,38.1743,0,0,0,2.7,14.31,40.233,40.233,0,0,0,7.47,12.06,33.1485,33.1485,0,0,0,11.16,8.19A32.6679,32.6679,0,0,0,760.0493,562.1064Z" transform="translate(-63.6348 -475.7065)"></path><path d="M870.7485,572.3662a45.6232,45.6232,0,0,1-33.66-14.4365,49.0751,49.0751,0,0,1-9.81-15.5108,50.3,50.3,0,0,1-3.51-18.8325,48.6162,48.6162,0,0,1,6.03-23.94,46.5545,46.5545,0,0,1,16.65-17.418,45.1492,45.1492,0,0,1,24.12-6.522q13.8588,0,24.21,6.6148a47.4942,47.4942,0,0,1,16.29,17.4321,48.3987,48.3987,0,0,1,5.94,23.6865V526.21a9.0363,9.0363,0,0,1-.18,2.0562h-80.28a40.5173,40.5173,0,0,0,5.67,17.8193,36.0485,36.0485,0,0,0,12.42,12.3555,31.9019,31.9019,0,0,0,16.65,4.5645,34.4569,34.4569,0,0,0,17.37-4.68,25.7784,25.7784,0,0,0,11.43-12.24l10.62,2.88a35.1164,35.1164,0,0,1-8.82,12.0606,42.4423,42.4423,0,0,1-13.95,8.37A49.0657,49.0657,0,0,1,870.7485,572.3662Zm-34.56-52.92h69.3a38.3016,38.3016,0,0,0-5.49-17.8115,34.7244,34.7244,0,0,0-12.42-12.0235,33.388,33.388,0,0,0-16.83-4.3647,32.8937,32.8937,0,0,0-16.74,4.3647,34.71,34.71,0,0,0-12.33,12.1109A38.5374,38.5374,0,0,0,836.1885,519.4463Z" transform="translate(-63.6348 -475.7065)"></path><path d="M1014.7466,570.5664h-12.24V518.521q0-16.4532-4.86-24.0522-4.86-7.6026-15.3-7.6026a31.7118,31.7118,0,0,0-14.22,3.4819,40.3215,40.3215,0,0,0-12.33,9.4644,36.2229,36.2229,0,0,0-7.65,13.66v57.0937h-12.24v-93.42h11.16V498.437a41.8959,41.8959,0,0,1,9.9-11.9023,46.8386,46.8386,0,0,1,13.86-7.9654,45.85,45.85,0,0,1,16.02-2.8628,27.7773,27.7773,0,0,1,13.14,2.8628,22.1617,22.1617,0,0,1,8.64,8.1451,37.9893,37.9893,0,0,1,4.68,12.707,87.3814,87.3814,0,0,1,1.44,16.5542Z" transform="translate(-63.6348 -475.7065)"></path></g></svg> 